<?xml version="1.0" encoding="UTF-8"?>
<svg width="48px" height="48px" viewBox="0 0 48 48" version="1.1" xmlns="http://www.w3.org/2000/svg">
  <g stroke="none" stroke-width="1" fill="none" fill-rule="evenodd">
    <path d="M35.8,25.5 C35.8,21.6 31.9,18.3 27,18.3 C22.1,18.3 18.2,21.6 18.2,25.5 C18.2,29.4 22.1,32.7 27,32.7 C28.2,32.7 29.4,32.4 30.5,32 L32.5,33 L31.7,30.9 C34.1,29.5 35.8,27.6 35.8,25.5 Z M25,23.5 C24.4,23.5 24,23 24,22.5 C24,22 24.4,21.5 25,21.5 C25.6,21.5 26,22 26,22.5 C26,23 25.6,23.5 25,23.5 Z M29,23.5 C28.4,23.5 28,23 28,22.5 C28,22 28.4,21.5 29,21.5 C29.6,21.5 30,22 30,22.5 C30,23 29.6,23.5 29,23.5 Z" fill="#FFFFFF"></path>
    <path d="M41,30.3 C41,27.1 37.8,24.4 33.8,24.4 C29.8,24.4 26.5,27.1 26.5,30.3 C26.5,33.5 29.8,36.2 33.8,36.2 C34.8,36.2 35.8,36 36.7,35.7 L38.3,36.5 L37.7,34.8 C39.7,33.7 41,32.1 41,30.3 Z M32.2,28.7 C31.7,28.7 31.3,28.3 31.3,27.9 C31.3,27.5 31.7,27.1 32.2,27.1 C32.7,27.1 33.1,27.5 33.1,27.9 C33.1,28.3 32.7,28.7 32.2,28.7 Z M35.5,28.7 C35,28.7 34.6,28.3 34.6,27.9 C34.6,27.5 35,27.1 35.5,27.1 C36,27.1 36.4,27.5 36.4,27.9 C36.4,28.3 36,28.7 35.5,28.7 Z" fill="#FFFFFF"></path>
    <path d="M24,4 C12.95,4 4,12.95 4,24 C4,35.05 12.95,44 24,44 C35.05,44 44,35.05 44,24 C44,12.95 35.05,4 24,4 Z M24,0 C37.255,0 48,10.745 48,24 C48,37.255 37.255,48 24,48 C10.745,48 0,37.255 0,24 C0,10.745 10.745,0 24,0 Z" fill="#FFFFFF" fill-rule="nonzero"></path>
  </g>
</svg> 